<?xml version="1.0" standalone="no"?>
<!DOCTYPE svg PUBLIC "-//W3C//DTD SVG 20010904//EN"
 "http://www.w3.org/TR/2001/REC-SVG-20010904/DTD/svg10.dtd">
<svg version="1.0" xmlns="http://www.w3.org/2000/svg"
 width="512.000000pt" height="512.000000pt" viewBox="0 0 512.000000 512.000000"
 preserveAspectRatio="xMidYMid meet">
<metadata>
Created by potrace 1.11, written by Peter Selinger 2001-2013
</metadata>
<g transform="translate(0.000000,512.000000) scale(0.100000,-0.100000)"
fill="#000000" stroke="none">
<path d="M2376 4661 c-3 -4 -17 -6 -31 -3 -14 2 -25 0 -25 -5 0 -5 -15 -7 -34
-5 -18 2 -37 -1 -40 -7 -5 -8 -13 -8 -27 -1 -10 6 -19 7 -19 2 0 -4 -17 -9
-37 -10 -21 -2 -40 -6 -43 -10 -3 -4 -22 -8 -44 -9 -21 -2 -44 -7 -51 -13 -6
-5 -14 -7 -17 -5 -3 3 -18 0 -34 -6 -27 -11 -50 -17 -81 -21 -7 -1 -13 -6 -13
-11 0 -6 -3 -8 -6 -4 -4 3 -19 0 -34 -8 -15 -8 -30 -11 -34 -8 -3 4 -6 1 -6
-5 0 -7 -3 -11 -7 -10 -15 3 -63 -14 -63 -23 0 -5 -3 -8 -7 -7 -15 3 -63 -14
-63 -23 0 -5 -9 -9 -20 -9 -11 0 -20 -5 -20 -11 0 -5 -4 -7 -10 -4 -5 3 -10 1
-10 -5 0 -6 -4 -8 -10 -5 -5 3 -10 2 -10 -4 0 -6 -7 -7 -17 -4 -9 4 -14 2 -10
-3 3 -6 -19 -24 -49 -40 -87 -46 -95 -51 -95 -60 0 -5 -7 -8 -16 -6 -8 2 -12
-1 -8 -7 3 -6 -1 -11 -9 -11 -8 0 -31 -15 -50 -34 -19 -19 -36 -32 -39 -29 -3
3 -17 -7 -30 -21 -13 -14 -29 -26 -35 -26 -6 0 -14 -9 -17 -21 -4 -11 -9 -18
-12 -16 -5 6 -15 -2 -80 -64 -24 -22 -43 -44 -43 -49 0 -6 -5 -10 -11 -10 -6
0 -25 -15 -42 -34 -53 -57 -66 -74 -60 -80 4 -3 0 -6 -8 -6 -8 0 -22 -12 -31
-27 -9 -16 -30 -42 -46 -60 -17 -17 -27 -34 -24 -37 3 -3 0 -6 -7 -6 -7 0 -10
-4 -7 -9 3 -5 -1 -12 -10 -15 -8 -3 -12 -10 -9 -16 3 -5 -1 -10 -10 -10 -9 0
-13 -4 -10 -10 3 -5 1 -10 -5 -10 -6 0 -9 -4 -6 -9 3 -5 -1 -12 -10 -15 -8 -3
-12 -10 -9 -16 3 -5 1 -10 -4 -10 -6 0 -11 -7 -11 -15 0 -9 -7 -18 -15 -21 -8
-4 -13 -10 -10 -14 3 -4 -2 -13 -10 -20 -8 -7 -13 -16 -10 -20 3 -5 -1 -14 -8
-22 -12 -12 -39 -67 -39 -78 0 -3 -6 -12 -14 -21 -8 -9 -11 -19 -7 -22 3 -4 1
-7 -6 -7 -7 0 -9 -5 -6 -10 3 -6 0 -13 -9 -16 -8 -3 -12 -12 -10 -19 3 -7 0
-16 -5 -20 -6 -3 -9 -11 -6 -16 4 -5 1 -9 -6 -9 -7 0 -10 -3 -7 -6 4 -3 0 -21
-8 -40 -8 -19 -12 -39 -9 -44 3 -4 0 -10 -6 -12 -6 -2 -12 -16 -12 -31 -1 -15
-5 -27 -9 -27 -5 0 -8 -10 -8 -23 0 -13 -4 -27 -9 -32 -5 -6 -12 -28 -14 -50
-2 -22 -7 -47 -10 -55 -4 -8 -8 -26 -9 -40 -2 -14 -7 -30 -11 -37 -4 -6 -3
-15 3 -18 7 -4 8 -11 1 -18 -5 -7 -12 -55 -16 -107 -7 -84 -10 -112 -15 -130
-6 -23 3 -226 11 -228 5 -2 6 -8 3 -14 -8 -12 6 -209 15 -204 3 2 7 -12 8 -32
2 -48 13 -103 24 -123 4 -9 6 -19 3 -22 -3 -2 4 -32 16 -66 11 -33 22 -69 23
-78 4 -16 15 -49 34 -93 3 -8 5 -18 5 -22 -1 -5 2 -8 8 -8 6 0 9 -3 8 -7 -4
-12 46 -133 54 -133 5 0 8 -9 8 -20 0 -11 5 -20 11 -20 5 0 8 -4 4 -9 -3 -6 3
-14 12 -20 10 -5 17 -12 16 -15 -7 -14 -2 -27 7 -21 6 3 10 -2 10 -13 0 -11 9
-31 20 -45 11 -14 20 -30 20 -36 0 -6 5 -11 10 -11 6 0 10 -7 10 -15 0 -8 9
-20 20 -27 11 -7 20 -20 20 -30 0 -9 4 -18 8 -20 4 -1 23 -23 42 -48 19 -24
41 -51 48 -58 6 -7 12 -17 12 -21 0 -4 11 -14 25 -21 13 -7 22 -17 19 -22 -3
-4 0 -8 6 -8 6 0 8 -5 4 -12 -4 -6 -3 -8 3 -5 6 4 16 0 23 -8 7 -8 9 -15 6
-15 -6 0 38 -43 107 -104 9 -9 22 -16 29 -16 6 0 9 -3 5 -6 -6 -7 72 -83 86
-84 4 0 18 -9 30 -20 42 -39 85 -70 95 -70 5 0 13 -7 16 -16 3 -9 13 -14 20
-11 8 3 17 -1 20 -10 4 -9 9 -13 13 -9 3 3 12 -3 20 -14 8 -11 22 -20 32 -20
11 0 22 -7 25 -16 3 -8 10 -12 16 -9 5 3 10 2 10 -4 0 -5 14 -12 30 -16 16 -4
30 -11 30 -16 0 -6 5 -7 10 -4 6 3 10 3 10 -2 0 -9 48 -33 67 -33 7 0 13 -4
13 -10 0 -5 8 -10 18 -10 10 0 22 -3 26 -7 6 -6 68 -31 91 -36 6 -2 15 -5 20
-9 21 -12 118 -37 126 -32 5 3 9 1 9 -4 0 -5 6 -9 13 -9 6 0 43 -8 80 -17 38
-9 73 -14 78 -10 5 3 9 1 9 -3 0 -5 21 -9 47 -10 25 -2 49 -7 53 -12 3 -6 11
-6 19 -2 7 5 29 5 50 0 48 -12 431 -9 431 2 0 6 9 5 20 -1 11 -6 20 -7 20 -2
0 4 17 9 38 11 46 4 77 8 77 10 0 1 12 4 26 6 69 9 114 18 139 28 8 3 51 16
95 28 44 13 82 25 85 28 3 3 14 8 25 9 11 2 32 10 47 18 15 8 34 14 42 14 8 0
22 7 30 16 9 9 22 17 29 18 6 1 18 5 25 9 6 5 12 5 12 1 0 -4 7 1 15 12 8 10
15 15 15 11 0 -5 14 1 30 13 17 12 30 18 30 13 0 -4 4 -3 8 3 4 6 26 21 50 34
23 13 42 28 42 32 0 5 4 7 9 4 5 -3 20 5 34 18 14 13 28 21 31 18 3 -3 6 2 6
12 0 9 4 14 10 11 5 -3 25 8 42 24 18 17 41 34 51 37 9 3 15 10 12 15 -4 5 1
9 10 9 9 0 14 4 11 9 -3 5 1 12 10 15 10 4 13 2 8 -7 -4 -6 3 -2 15 10 11 12
21 27 21 33 0 5 4 10 9 10 13 0 131 118 131 131 0 7 3 10 6 6 3 -3 26 15 50
40 24 26 42 48 40 51 -2 2 13 21 34 42 21 21 36 41 33 44 -3 3 2 8 11 12 9 3
16 12 16 20 0 8 5 14 10 14 6 0 10 6 10 14 0 8 3 16 8 18 16 7 82 120 76 130
-4 6 -3 8 3 5 10 -7 28 20 25 36 -1 4 3 7 8 7 6 0 10 9 10 20 0 11 4 20 9 20
9 0 26 48 23 62 -1 5 3 7 10 5 7 -1 12 3 13 8 0 6 4 16 8 23 5 6 6 16 3 21 -3
5 1 12 10 15 8 3 13 10 9 15 -3 5 0 13 6 16 5 4 8 13 5 21 -3 7 1 20 9 27 8 8
16 25 18 38 2 13 7 31 10 39 29 75 43 130 35 130 -6 0 -6 6 1 14 7 8 14 27 16
43 2 15 4 28 5 28 4 0 13 64 14 97 1 20 4 34 9 31 6 -4 10 44 11 125 0 12 3
22 6 22 3 0 3 79 0 176 -3 97 -2 181 2 187 3 6 3 20 -2 32 -5 12 -9 44 -11 71
-1 27 -5 53 -8 59 -3 5 -7 28 -9 50 -2 22 -8 45 -12 51 -6 6 -5 15 1 21 8 8 8
13 0 17 -6 4 -11 16 -11 27 0 10 -3 19 -7 19 -5 0 -8 10 -9 23 -1 34 -27 121
-39 129 -5 4 -6 8 -1 8 4 0 2 10 -6 23 -8 12 -14 29 -13 37 0 8 -5 21 -12 28
-7 8 -11 18 -8 23 4 5 1 9 -5 9 -6 0 -9 4 -5 9 3 5 1 12 -5 16 -5 3 -10 15
-10 26 0 10 -4 19 -10 19 -5 0 -10 6 -10 14 0 13 -29 75 -40 86 -3 3 -14 24
-25 47 -11 24 -23 43 -27 43 -5 0 -8 4 -8 10 0 5 -8 19 -17 30 -10 11 -17 23
-15 26 2 3 -6 14 -18 24 -12 10 -20 21 -18 24 2 3 -6 16 -17 28 -10 13 -18 24
-17 25 1 2 -12 16 -29 32 -17 16 -29 31 -28 33 4 4 -28 43 -69 85 -19 18 -31
33 -29 33 7 0 -96 103 -141 143 -18 15 -37 27 -43 27 -5 0 -7 5 -4 10 3 6 2
10 -4 10 -5 0 -23 14 -39 30 -17 17 -35 30 -40 30 -5 0 -13 7 -16 16 -4 9 -9
14 -13 11 -3 -4 -14 3 -24 14 -9 11 -20 20 -23 20 -20 -3 -27 0 -22 8 3 5 -8
14 -24 21 -17 7 -30 16 -30 21 0 5 -7 9 -15 9 -8 0 -15 5 -15 10 0 6 -9 10
-21 10 -11 0 -17 5 -14 10 3 6 0 10 -8 10 -8 0 -26 9 -40 20 -14 11 -32 20
-41 20 -9 0 -16 5 -16 11 0 5 -5 7 -10 4 -6 -3 -13 0 -16 9 -3 8 -12 12 -20 9
-8 -3 -14 0 -14 6 0 6 -3 10 -7 9 -5 -1 -26 7 -48 17 -22 10 -46 17 -52 16 -7
-1 -13 3 -13 9 0 5 -8 10 -18 10 -10 0 -22 3 -26 7 -6 7 -29 13 -53 15 -7 1
-13 6 -13 11 0 6 -3 7 -7 4 -3 -4 -12 -2 -20 5 -7 6 -16 8 -19 5 -3 -3 -21 1
-40 9 -19 8 -36 14 -39 14 -3 0 -10 2 -17 4 -7 3 -26 7 -43 10 -16 4 -39 8
-50 11 -11 2 -41 6 -67 9 -26 3 -52 7 -56 10 -5 3 -52 8 -103 12 -52 3 -97 8
-101 11 -5 2 -8 -1 -8 -7 0 -7 -6 -8 -19 0 -12 6 -22 6 -25 1 -3 -5 -21 -5
-41 -1 -21 5 -35 4 -35 -1 0 -6 -8 -5 -19 1 -12 6 -22 6 -25 1 -3 -5 -21 -5
-41 -1 -21 5 -35 4 -35 -1 0 -6 -8 -5 -19 1 -11 5 -22 6 -25 1z"/>
</g>
</svg>
