<?xml version="1.0" encoding="iso-8859-1"?>
<!-- Generator: Adobe Illustrator 16.0.0, SVG Export Plug-In . SVG Version: 6.00 Build 0)  -->
<!DOCTYPE svg PUBLIC "-//W3C//DTD SVG 1.1//EN" "http://www.w3.org/Graphics/SVG/1.1/DTD/svg11.dtd">
<svg version="1.1" xmlns="http://www.w3.org/2000/svg" xmlns:xlink="http://www.w3.org/1999/xlink" x="0px" y="0px" width="262px"
	 height="266.42px" viewBox="0 0 262 266.42" style="enable-background:new 0 0 262 266.42;" xml:space="preserve">
<g id="Layer_3" style="display:none;">
	<g style="display:inline;">
		<g>
			<path style="fill:none;stroke:#E6E6E6;stroke-width:6.7447;stroke-linejoin:round;stroke-miterlimit:10;" d="M122,115.229
				c8.213,0,24.771,16.557,24.771,24.771"/>
			
				<path style="fill:none;stroke:#E6E6E6;stroke-width:15.942;stroke-linecap:round;stroke-linejoin:round;stroke-miterlimit:10;" d="
				M124.085,110.937c8.944,0,26.979,18.034,26.979,26.979"/>
		</g>
		
			<path style="fill:none;stroke:#E6E6E6;stroke-width:15.942;stroke-linecap:round;stroke-linejoin:round;stroke-miterlimit:10;" d="
			M124.085,83.958c20.866,0,53.957,33.091,53.957,53.957"/>
		
			<path style="fill:none;stroke:#E6E6E6;stroke-width:15.942;stroke-linecap:round;stroke-linejoin:round;stroke-miterlimit:10;" d="
			M124.085,56.979c35.805,0,80.937,45.132,80.937,80.937"/>
		
			<path style="fill:none;stroke:#E6E6E6;stroke-width:15.942;stroke-linecap:round;stroke-linejoin:round;stroke-miterlimit:10;" d="
			M124.085,30C177.779,30,232,84.221,232,137.915"/>
	</g>
	
		<path style="display:inline;fill:none;stroke:#25A05F;stroke-width:14.7157;stroke-linecap:round;stroke-linejoin:round;stroke-miterlimit:10;" d="
		M124.085,83.958c20.866,0,53.957,33.091,53.957,53.957"/>
	
		<path style="display:inline;fill:none;stroke:#F7A13E;stroke-width:14.7157;stroke-linecap:round;stroke-linejoin:round;stroke-miterlimit:10;" d="
		M124.085,56.979c35.805,0,80.937,45.132,80.937,80.937"/>
	
		<path style="display:inline;fill:none;stroke:#EE3E41;stroke-width:14.7157;stroke-linecap:round;stroke-linejoin:round;stroke-miterlimit:10;" d="
		M124.085,30C177.779,30,232,84.221,232,137.915"/>
	<g style="display:inline;">
		<path style="fill:none;stroke:#3987C5;stroke-width:5.5184;stroke-linejoin:round;stroke-miterlimit:10;" d="M122,115.229
			c8.213,0,24.771,16.557,24.771,24.771"/>
		
			<path style="fill:none;stroke:#3987C5;stroke-width:14.7157;stroke-linecap:round;stroke-linejoin:round;stroke-miterlimit:10;" d="
			M124.085,110.937c8.944,0,26.979,18.034,26.979,26.979"/>
	</g>
</g>
<g id="Layer_4" style="display:none;">
	<path style="display:inline;fill:#3987C5;stroke:#E6E6E6;stroke-miterlimit:10;" d="M155.154,138.874L155.154,138.874
		c-2.537-15.595-14.653-27.696-30.028-30.325v0.001c0,0-6.126-1.087-6.126,6.268c0,5.012,6.126,6.257,6.126,6.257v-0.001
		c8.595,2.256,15.346,9.112,17.522,17.801h0.001c0,0,0.711,6.126,6.268,6.126C156.016,145,155.154,138.874,155.154,138.874z"/>
	<path style="display:inline;fill:#25A05F;stroke:#E6E6E6;stroke-miterlimit:10;" d="M179.857,138.763L179.857,138.763
		c-2.822-28.958-25.805-52.006-54.731-54.932l0,0c0,0-6.126-0.708-6.126,6.221c0,5.808,6.126,6.111,6.126,6.111l0,0
		c22.153,2.814,39.69,20.415,42.405,42.6l0,0c0,0,0,6.126,6.115,6.126C180.376,144.889,179.857,138.763,179.857,138.763z"/>
	<path style="display:inline;fill:#F7A13E;stroke:#E6E6E6;stroke-miterlimit:10;" d="M204.134,138.763
		C201.189,96.262,166.5,62.285,124.5,59.233v-0.002c0,0-5.813-0.612-5.813,6.133c0,5.842,6.283,6.165,6.283,6.165l0.079,0.063
		c35.698,3,64.184,32.408,67.079,67.408h0.017c0,0,0.022,6.008,5.843,6.008C204.846,145.008,204.134,138.763,204.134,138.763z"/>
	<path style="display:inline;fill:#EE3E41;stroke:#E6E6E6;stroke-miterlimit:10;" d="M228.999,138.763L228.999,138.763
		c-3.013-56.04-47.864-100.96-103.873-104.083v0.001c0,0-6.126-0.206-6.126,6.136c0,5.93,6.126,6.137,6.126,6.137l0,0
		c49.24,3.092,88.618,42.538,91.6,91.81l0,0c0,0,0.207,6.126,6.137,6.126C229.205,144.889,228.999,138.763,228.999,138.763z"/>
</g>
<g id="Layer_1">
	<g style="display:none;">
		<path style="display:inline;fill-rule:evenodd;clip-rule:evenodd;fill:#3A3A3A;" d="M45.155,238.948
			c-0.392,0.831-0.508,1.793-0.498,2.492c0.028,2.052,2.2,7.517,8.473,12.213c6.298,4.716,17.049,9.592,29.908,7.727
			c7.665-1.112,18.522-5.032,25.171-14.456c2.814-3.987,4.638-8.672,4.736-13.459c0.015-0.719,0.026-3.407-0.499-3.489
			c-0.443-0.068-1.046,1.771-1.495,2.99c-1.454,3.958-3.942,7.604-5.981,9.971c-5.022,5.826-12.865,9.712-21.185,9.969
			c-14.591,0.452-25.293-12.725-26.419-14.206c-0.205-0.271-1.131-1.385-2.243-1.995c-0.413-0.226-1.335-0.545-2.243-0.747
			c-1.319-0.291-2.728-0.336-3.24-0.248c-0.923,0.157-1.771,0.505-2.492,0.995C46.157,237.38,45.525,238.165,45.155,238.948z"/>
		<path style="display:inline;fill-rule:evenodd;clip-rule:evenodd;fill:#3A3A3A;" d="M176.5,213.745
			c1.148,0.672,7.965,3.758,14.883,3.532c4.143-0.134,8.299-1.086,9.84-1.766c3.83-1.69,7.059-4.551,9.334-8.074
			c2.521-3.9,3.947-8.262,3.279-12.36c-0.293-1.788-0.949-3.58-1.262-3.532c-0.287,0.044-0.154,2.58-0.252,3.532
			c-0.73,7.163-7.494,13.299-13.875,15.642c-9.523,3.495-18.588,0.332-20.182-1.009c-0.061-0.052-0.811-0.579-1.514-0.759
			c-0.354-0.089-0.676-0.105-1.01,0c-0.291,0.094-0.549,0.27-0.756,0.506c-0.229,0.211-0.402,0.468-0.506,0.757
			c-0.098,0.282-0.156,0.699,0,1.261C174.77,212.511,175.664,213.258,176.5,213.745z"/>
		<path style="display:inline;fill-rule:evenodd;clip-rule:evenodd;fill:#3A3A3A;" d="M108.209,218.263
			c-1.292,0.979-2.048,2.181-2.243,2.74c-0.242,0.7-0.396,2.193,0.25,3.988c0.652,1.812,2.039,3.293,2.492,3.738
			c1.737,1.709,2.717,3.31,4.486,4.985c3.26,3.085,9.763,8.178,17.197,10.468c6.714,2.066,24.419,5.417,37.384-7.479
			c12.32-12.252,9.818-29.121,8.225-34.146c-0.367-1.16-0.879-2.546-1.244-2.492c-0.422,0.062-0.418,1.969-0.5,3.24
			c-0.549,8.543-7.123,14.829-9.721,16.949c-3.898,3.183-11.396,6.291-22.68,6.23c-1.466-0.008-3.695-0.075-3.737,0.249
			c-0.049,0.367,2.7,1.014,3.737,1.247c8.197,1.83,14.332,1.09,18.941-0.498c3.752-1.294,6.904-3.372,7.977-4.488
			c0.723-0.751,1.371-1.58,1.496-1.494c0.145,0.101-0.549,1.418-1.248,2.492c-0.963,1.483-2.051,2.683-3.24,3.738
			c-2.043,1.814-4.936,3.871-7.975,5.233c-5.959,2.674-13.021,3.794-19.688,2.244c-5.47-1.271-10.725-4.268-14.954-8.475
			c-1.789-1.777-3.771-3.907-4.487-4.984c-0.451-0.679-1.777-2.591-3.737-3.739c-1.823-1.066-3.332-1.167-4.238-0.996
			C110.213,217.108,109.168,217.534,108.209,218.263z"/>
		<path style="display:inline;fill-rule:evenodd;clip-rule:evenodd;fill:#3A3A3A;" d="M52.382,186.607
			c0.003-0.363-1.674-0.652-2.244-0.748c-1.787-0.3-3.184-0.781-4.984-0.997c-2.872-0.342-11.525-0.861-19.44,2.743
			c-6.168,2.808-11.293,7.229-14.705,12.71c-3.997,6.422-5.73,13.611-4.736,20.438c0.947,6.493,4.17,12.479,8.724,16.699
			c13.846,12.83,38.057,7.379,49.347-0.249c3.132-2.117,6.598-5.408,9.471-8.475c0.708-0.756,2.149-2.324,1.995-2.492
			c-0.141-0.152-1.485,0.962-2.991,1.995c-3.556,2.435-7.74,3.892-9.969,4.485c-10.955,2.913-28.618-1.431-33.397-14.706
			c-3.071-8.527-0.231-19.071,6.23-24.675c2.352-2.038,4.865-3.167,4.985-2.991c0.111,0.164-2.184,1.675-3.987,3.739
			c-3.147,3.603-5.49,8.779-5.483,14.456c0.011,9.332,6.196,16.893,12.711,19.938c2.976,1.394,5.869,1.808,5.981,1.496
			c0.109-0.302-2.891-1.27-5.233-3.24c-6.902-5.802-7.118-15.476-6.73-19.69c0.897-9.761,8.357-16.718,9.471-17.695
			c0.902-0.792,1.859-1.452,2.492-1.744C50.689,187.236,52.38,186.903,52.382,186.607z"/>
	</g>
	<g style="display:none;">
		<g style="display:inline;">
			<defs>
				<rect id="SVGID_1_" x="109.677" y="30.754" width="120.987" height="120.453"/>
			</defs>
			<clipPath id="SVGID_2_">
				<use xlink:href="#SVGID_1_"  style="overflow:visible;"/>
			</clipPath>
			<g style="clip-path:url(#SVGID_2_);">
				<defs>
					<rect id="SVGID_3_" x="86.669" y="-9.415" width="240.401" height="180.3"/>
				</defs>
				<clipPath id="SVGID_4_">
					<use xlink:href="#SVGID_3_"  style="overflow:visible;"/>
				</clipPath>
				<path style="clip-path:url(#SVGID_4_);fill:#EE3E41;stroke:#E6E6E6;stroke-miterlimit:10;" d="M119.289,35.661
					c-0.126,0-0.236,0.002-0.425,0.002c-8.22-0.002-8.22,13.57,0,13.853c0.094,0.003,0.377,0,0.377,0
					c51.944,1.875,92.324,43.429,95.235,94.907c0,0,0.001,0.07,0,0.094c-0.094,6.691,13.511,6.503,13.462,0
					c-0.001-0.188,0.002-0.298,0.002-0.424C227.94,84.233,179.295,35.661,119.289,35.661"/>
				<path style="clip-path:url(#SVGID_4_);fill:#F7A13E;stroke:#E6E6E6;stroke-miterlimit:10;" d="M203.055,144.348
					c0.049-38.181-37.512-83.988-83.786-83.988c-0.064,0-0.048-0.042-0.242-0.047c-8.437-0.196-8.437,13.793,0,13.99
					c0.194,0.005,0.206-0.008,0.302-0.002c36.361,2.444,68.056,32.729,69.713,69.853c0,0-0.001,0.146,0,0.194
					C189.139,151.052,203.104,151.052,203.055,144.348"/>
				<path style="clip-path:url(#SVGID_4_);fill:#25A05F;stroke:#E6E6E6;stroke-miterlimit:10;" d="M178.64,143.839
					c0.051-27.148-26.42-59.061-59.01-59.061c-0.068,0-0.052-0.044-0.256-0.049c-8.913-0.207-8.913,14.546,0,14.548
					c0.205,0,0.188-0.005,0.256-0.002c24.323,1.182,42.635,19.259,44.284,44.309c0.005,0.067-0.028-6.813-0.002,0.256
					C163.938,150.908,178.69,150.908,178.64,143.839"/>
				<path style="clip-path:url(#SVGID_4_);fill:#3987C5;stroke:#E6E6E6;stroke-miterlimit:10;" d="M120.652,111.725
					c-0.155-0.026-0.293,0.005-0.528,0c-9.273-0.235-10.447,10.33-0.352,12.677c0.229,0.053,0.734,0.176,0.88,0.234
					c8.745,3.521,13.91,7.982,17.903,18.137c0.029,0.071,0.183,0.65,0.233,0.88c1.643,7.513,12.973,7.513,12.912-0.587
					c0.166-0.166,0.016-0.219,0-0.293C148.179,126.28,134.797,114.073,120.652,111.725"/>
			</g>
		</g>
	</g>
	<g style="display:none;">
		<path style="display:inline;fill-rule:evenodd;clip-rule:evenodd;fill:#3A3A3A;" d="M54.729,231.393
			c-0.322,0.662-0.413,1.465-0.407,2.013c0.021,1.671,1.792,6.107,6.885,9.928c5.117,3.84,13.85,7.802,24.301,6.279
			c6.225-0.898,15.045-4.08,20.455-11.752c2.282-3.226,3.763-7.034,3.842-10.926c0.015-0.586,0.026-2.779-0.404-2.824
			c-0.365-0.067-0.854,1.43-1.21,2.42c-1.187,3.212-3.21,6.183-4.861,8.104c-4.085,4.722-10.46,7.884-17.219,8.103
			c-11.85,0.364-20.552-10.353-21.467-11.54c-0.166-0.232-0.915-1.128-1.82-1.625c-0.334-0.178-1.081-0.458-1.82-0.622
			c-1.072-0.216-2.22-0.26-2.635-0.198c-0.748,0.145-1.433,0.417-2.02,0.82C55.546,230.106,55.031,230.742,54.729,231.393z"/>
		<path style="display:inline;fill-rule:evenodd;clip-rule:evenodd;fill:#3A3A3A;" d="M161.451,210.925
			c0.926,0.522,6.455,3.037,12.076,2.85c3.375-0.096,6.744-0.864,8.006-1.423c3.107-1.386,5.729-3.713,7.582-6.551
			c2.045-3.177,3.201-6.738,2.67-10.057c-0.25-1.464-0.785-2.913-1.033-2.865c-0.24,0.044-0.115,2.085-0.209,2.865
			c-0.582,5.812-6.088,10.805-11.268,12.707c-7.746,2.831-15.105,0.277-16.395-0.824c-0.057-0.024-0.658-0.476-1.242-0.617
			c-0.281-0.052-0.529-0.067-0.82,0c-0.221,0.094-0.438,0.231-0.607,0.43c-0.188,0.173-0.326,0.356-0.408,0.604
			c-0.08,0.243-0.137,0.573,0,1.032C160.033,209.922,160.773,210.517,161.451,210.925z"/>
		<path style="display:inline;fill-rule:evenodd;clip-rule:evenodd;fill:#3A3A3A;" d="M105.964,214.571
			c-1.06,0.813-1.667,1.796-1.824,2.243c-0.203,0.554-0.321,1.774,0.196,3.227c0.536,1.469,1.658,2.684,2.032,3.053
			c1.413,1.371,2.203,2.687,3.644,4.033c2.641,2.514,7.923,6.654,13.966,8.525c5.457,1.676,19.838,4.389,30.379-6.08
			c10.01-9.956,7.969-23.664,6.678-27.736c-0.293-0.97-0.723-2.089-1.014-2.035c-0.346,0.062-0.342,1.588-0.391,2.631
			c-0.465,6.943-5.789,12.049-7.91,13.775c-3.156,2.586-9.256,5.116-18.429,5.063c-1.183-0.008-2.994-0.075-3.035,0.209
			c-0.034,0.293,2.197,0.823,3.035,1.001c6.667,1.486,11.654,0.881,15.396-0.402c3.038-1.064,5.61-2.732,6.489-3.65
			c0.574-0.599,1.107-1.275,1.197-1.224c0.129,0.097-0.438,1.153-1.016,2.031c-0.777,1.217-1.658,2.188-2.633,3.053
			c-1.658,1.472-3.989,3.146-6.458,4.243c-4.851,2.179-10.592,3.07-16.009,1.825c-4.442-1.042-8.707-3.468-12.154-6.877
			c-1.448-1.468-3.058-3.182-3.636-4.068c-0.371-0.543-1.449-2.096-3.045-3.02c-1.481-0.872-2.704-0.973-3.44-0.82
			C107.587,213.644,106.735,213.993,105.964,214.571z"/>
		<path style="display:inline;fill-rule:evenodd;clip-rule:evenodd;fill:#3A3A3A;" d="M60.598,188.855
			c0.001-0.287-1.355-0.535-1.821-0.596c-1.452-0.262-2.583-0.629-4.047-0.807c-2.332-0.29-9.366-0.709-15.795,2.21
			c-5.008,2.293-9.178,5.896-11.944,10.349c-3.253,5.203-4.661,11.06-3.853,16.592c0.77,5.274,3.389,10.154,7.088,13.576
			c11.248,10.43,30.925,5.995,40.097-0.211c2.546-1.714,5.362-4.38,7.688-6.875c0.575-0.614,1.748-1.905,1.63-2.035
			c-0.121-0.114-1.216,0.773-2.438,1.614c-2.889,1.978-6.291,3.168-8.103,3.647c-8.898,2.38-23.248-1.164-27.132-11.93
			c-2.494-6.93-0.187-15.51,5.068-20.063c1.91-1.657,3.951-2.558,4.051-2.42c0.089,0.126-1.782,1.368-3.243,3.019
			c-2.557,2.952-4.462,7.139-4.455,11.749c0.011,7.58,5.034,13.731,10.33,16.206c2.415,1.127,4.765,1.465,4.858,1.229
			c0.09-0.263-2.353-1.04-4.255-2.632c-5.608-4.733-5.781-12.579-5.463-15.998c0.728-7.929,6.786-13.591,7.691-14.378
			c0.737-0.64,1.509-1.186,2.027-1.439C59.224,189.37,60.597,189.113,60.598,188.855z"/>
	</g>
	<g>
		<rect x="15.025" y="78.262" style="fill:none;" width="157" height="179.906"/>
		<path style="fill:#E6E6E6;" d="M43.11,238.57c-2.87,0-5.195-0.922-6.97-2.768c-1.778-1.846-2.665-4.132-2.665-6.867v-93.07
			c0-2.87,0.887-5.192,2.665-6.971c1.774-1.773,4.1-2.664,6.97-2.664s5.192,0.891,6.97,2.664c1.774,1.778,2.665,4.101,2.665,6.971
			v93.07c0,2.735-0.891,5.021-2.665,6.867C48.302,237.648,45.98,238.57,43.11,238.57z M128.595,238.57
			c-2.735,0-5.022-0.922-6.867-2.768c-1.845-1.846-2.768-4.132-2.768-6.867V177.48c0-7.925-1.47-14.453-4.408-19.578
			c-2.94-5.125-6.97-8.949-12.095-11.479c-5.125-2.527-10.9-3.792-17.323-3.792c-6.15,0-11.653,1.229-16.502,3.689
			c-4.853,2.46-8.712,5.74-11.583,9.84s-4.305,8.748-4.305,13.939H40.24c0.135-8.609,2.322-16.297,6.56-23.063
			c4.235-6.764,9.975-12.094,17.22-15.989c7.242-3.896,15.375-5.843,24.395-5.843c9.43,0,17.902,2.018,25.42,6.048
			c7.515,4.032,13.459,9.942,17.835,17.732c4.372,7.79,6.56,17.29,6.56,28.495v51.455c0,2.735-0.922,5.021-2.768,6.867
			S131.327,238.57,128.595,238.57z"/>
	</g>
</g>
<g id="Layer_5">
	<g>
		<path style="fill:#3987C5;stroke:#E6E6E6;stroke-miterlimit:10;" d="M156.533,137.668c-2.604-16.008-16.188-29.458-32.194-32.156
			c0,0-6.289-1.116-6.289,6.433c0,5.144,6.289,6.422,6.289,6.422c8.918,2.315,16.493,9.296,18.771,17.813
			c0,0,1.81,7.375,6.866,7.375C157.511,143.556,156.533,137.668,156.533,137.668z"/>
		<path style="fill:#F7A13E;stroke:#E6E6E6;stroke-miterlimit:10;" d="M206.79,136.524c-3.022-43.626-38.089-78.502-81.766-81.636
			v-0.001c0,0-6.05-0.629-6.05,6.295c0,5.996,6.525,6.328,6.525,6.328v-0.001c36,3.08,66.228,32.77,69.198,69.587l-0.052,0.513
			c0,0,0.427,5.489,5.897,5.489C207.583,143.099,206.79,136.524,206.79,136.524z"/>
		<path style="fill:#25A05F;stroke:#E6E6E6;stroke-miterlimit:10;" d="M181.393,136.639l-0.063-0.223
			c-2.974-29.728-26.577-53.274-56.306-56.277v0c0,0-5.945-0.125-5.945,6.987c0,5.961,6.603,6.875,6.603,6.875h0.015
			c22.739,3,40.71,20.341,43.498,43.207c0,0,0.327,6.151,6.105,6.151C182.209,143.358,181.393,136.639,181.393,136.639z"/>
		<path style="fill:#EE3E41;stroke:#E6E6E6;stroke-miterlimit:10;" d="M232.5,138.011v-0.19
			c-3-57.626-50.299-104.914-107.925-108.12l-0.584,0.023c0,0-5.291,0.393-5.291,6.903c0,6.904,6.673,6.89,6.673,6.89l0.328,0.052
			c50.545,3.202,90.969,43.677,94.031,94.442l0.028,0.311c0,0,0.271,5.979,6.356,5.979C232.627,144.3,232.5,138.011,232.5,138.011z"
			/>
	</g>
	<g>
	</g>
	<g>
	</g>
	<g>
	</g>
	<g>
	</g>
	<g>
	</g>
	<g>
	</g>
	<g>
	</g>
	<g>
	</g>
	<g>
	</g>
	<g>
	</g>
	<g>
	</g>
	<g>
	</g>
	<g>
	</g>
	<g>
	</g>
	<g>
	</g>
</g>
</svg>
