<?xml version="1.0" encoding="utf-8"?>
<!-- Generator: Adobe Illustrator 16.0.0, SVG Export Plug-In . SVG Version: 6.00 Build 0)  -->
<!DOCTYPE svg PUBLIC "-//W3C//DTD SVG 1.1//EN" "http://www.w3.org/Graphics/SVG/1.1/DTD/svg11.dtd">
<svg version="1.1" id="Layer_1" xmlns="http://www.w3.org/2000/svg" xmlns:xlink="http://www.w3.org/1999/xlink" x="0px" y="0px"
	 width="28.945px" height="52.815px" viewBox="11.936 -11.935 28.945 52.815" enable-background="new 11.936 -11.935 28.945 52.815"
	 xml:space="preserve">
<path fill="#FFFFFF" d="M36.668-11.257L13.753,10.303c-1.171,1.102-1.817,2.582-1.817,4.17c0,1.587,0.646,3.068,1.817,4.17
	L36.668,40.2c1.006,0.946,2.588,0.898,3.533-0.106c0.945-1.004,0.898-2.588-0.107-3.533l-22.915-21.56
	c-0.2-0.188-0.243-0.392-0.243-0.527s0.043-0.339,0.243-0.528L40.094-7.614c0.523-0.492,0.787-1.156,0.787-1.821
	c0-0.614-0.227-1.229-0.68-1.713C39.256-12.155,37.674-12.202,36.668-11.257z"/>
</svg>
