<?xml version="1.0" encoding="utf-8"?>
<!-- Generator: Adobe Illustrator 16.0.0, SVG Export Plug-In . SVG Version: 6.00 Build 0)  -->
<!DOCTYPE svg PUBLIC "-//W3C//DTD SVG 1.1//EN" "http://www.w3.org/Graphics/SVG/1.1/DTD/svg11.dtd">
<svg version="1.1" id="Layer_1" xmlns="http://www.w3.org/2000/svg" xmlns:xlink="http://www.w3.org/1999/xlink" x="0px" y="0px"
	 width="28.945px" height="52.815px" viewBox="11.936 -11.935 28.945 52.815" enable-background="new 11.936 -11.935 28.945 52.815"
	 xml:space="preserve">
<path fill="#FFFFFF" d="M12.615-11.148c-0.453,0.483-0.68,1.099-0.68,1.713c0,0.665,0.264,1.329,0.787,1.821l22.914,21.559
	c0.201,0.189,0.244,0.393,0.244,0.528s-0.043,0.339-0.244,0.527L12.722,36.56c-1.006,0.945-1.053,2.529-0.107,3.533
	c0.945,1.005,2.527,1.053,3.533,0.106l22.914-21.557c1.172-1.102,1.818-2.583,1.818-4.17c0-1.588-0.646-3.068-1.818-4.17
	L16.148-11.257C15.142-12.202,13.56-12.155,12.615-11.148z"/>
</svg>
