<svg version="1.1" id="Layer_1" xmlns="http://www.w3.org/2000/svg" xmlns:xlink="http://www.w3.org/1999/xlink" x="0px" y="0px"
	 width="30.541px" height="31.648px" viewBox="0 0 30.541 31.648" enable-background="new 0 0 30.541 31.648" xml:space="preserve">
<path fill="#231F20" d="M27.891,0.615l-9.193,5.309c-1.457,0.842-3.846,2.221-5.305,3.063l-7.762,4.48V1.547
	C5.631,0.695,4.936,0,4.084,0H1.547C0.697,0,0,0.695,0,1.547v28.555c0,0.85,0.697,1.547,1.547,1.547h2.537
	c0.852,0,1.547-0.697,1.547-1.547V18.184l7.762,4.48c1.459,0.842,3.848,2.221,5.305,3.063l9.193,5.307
	c1.459,0.844,2.65,0.154,2.65-1.531V18.887c0-1.686,0-4.441,0-6.127V2.148C30.541,0.463,29.35-0.227,27.891,0.615z"/>
</svg>
