<svg version="1.1" id="Layer_1" xmlns="http://www.w3.org/2000/svg" xmlns:xlink="http://www.w3.org/1999/xlink" x="0px" y="0px"
	 width="30.544px" height="31.648px" viewBox="0 0 30.544 31.648" enable-background="new 0 0 30.544 31.648" xml:space="preserve">
<path fill="#231F20" d="M28.996,0h-2.539c-0.852,0-1.547,0.697-1.547,1.549v11.917l-7.758-4.479
	c-1.459-0.842-3.847-2.221-5.306-3.063L2.652,0.617C1.193-0.227,0,0.463,0,2.148V12.76c0,1.686,0,4.443,0,6.126v10.615
	c0,1.686,1.193,2.375,2.652,1.531l9.193-5.307c1.459-0.842,3.847-2.221,5.306-3.064l7.758-4.48v11.92
	c0,0.852,0.695,1.547,1.547,1.547h2.539c0.852,0,1.549-0.695,1.549-1.547V1.549C30.544,0.697,29.847,0,28.996,0z"/>
</svg>
