<?xml version="1.0" encoding="utf-8"?>
<!-- Generator: Adobe Illustrator 16.0.0, SVG Export Plug-In . SVG Version: 6.00 Build 0)  -->
<!DOCTYPE svg PUBLIC "-//W3C//DTD SVG 1.1//EN" "http://www.w3.org/Graphics/SVG/1.1/DTD/svg11.dtd">
<svg version="1.1" id="Layer_1" xmlns="http://www.w3.org/2000/svg" xmlns:xlink="http://www.w3.org/1999/xlink" x="0px" y="0px"
	 width="29.302px" height="41.941px" viewBox="0 0 29.302 41.941" enable-background="new 0 0 29.302 41.941" xml:space="preserve">
<g>
	<path fill="#FFFFFF" d="M6.607,0h-3.16C1.553,0,0,1.553,0,3.447v35.046c0,1.896,1.553,3.447,3.447,3.447h3.16
		c1.896,0,3.447-1.551,3.447-3.447V3.447C10.055,1.553,8.504,0,6.607,0z"/>
	<path fill="#FFFFFF" d="M25.855,0h-3.16c-1.896,0-3.447,1.553-3.447,3.447v35.046c0,1.896,1.551,3.447,3.447,3.447h3.16
		c1.896,0,3.447-1.551,3.447-3.447V3.447C29.302,1.553,27.751,0,25.855,0z"/>
</g>
</svg>
