<svg version="1.1" id="Layer_1" xmlns="http://www.w3.org/2000/svg" xmlns:xlink="http://www.w3.org/1999/xlink" x="0px" y="0px"
	 width="42.123px" height="42.124px" viewBox="0 0 42.123 42.124" enable-background="new 0 0 42.123 42.124" xml:space="preserve">
<path fill="#231F20" d="M41.115,35.121l-14.061-14.06L41.118,6.999c1.339-1.344,1.339-3.527-0.003-4.873l-1.122-1.119
	c-1.339-1.342-3.526-1.342-4.869,0L21.062,15.069L6.999,1.006C5.657-0.335,3.47-0.335,2.125,1.008L1.007,2.129
	c-1.341,1.342-1.341,3.525,0,4.869l14.062,14.063l-14.06,14.06c-1.343,1.348-1.347,3.533-0.002,4.875l1.118,1.121
	c1.345,1.344,3.532,1.342,4.877-0.004l14.061-14.059l14.059,14.059c1.346,1.346,3.533,1.348,4.875,0.004l1.122-1.121
	C42.459,38.654,42.457,36.469,41.115,35.121z"/>
</svg>
